<?xml version="1.0" standalone="no"?>
<!DOCTYPE svg PUBLIC "-//W3C//DTD SVG 20010904//EN"
 "http://www.w3.org/TR/2001/REC-SVG-20010904/DTD/svg10.dtd">
<svg version="1.0" xmlns="http://www.w3.org/2000/svg"
 width="783.000000pt" height="783.000000pt" viewBox="0 0 783.000000 783.000000"
 preserveAspectRatio="xMidYMid meet">
<metadata>
Created by potrace 1.11, written by Peter Selinger 2001-2013
</metadata>
<g transform="translate(0.000000,783.000000) scale(0.100000,-0.100000)"
fill="#000000" stroke="none">
<path d="M3777 5144 c-1 -1 -112 -5 -247 -8 -135 -4 -270 -8 -300 -11 -30 -2
-95 -6 -145 -9 -49 -3 -115 -8 -145 -11 -30 -3 -80 -7 -110 -9 -30 -3 -80 -7
-110 -10 -30 -4 -75 -8 -100 -11 -70 -7 -182 -22 -235 -30 -16 -3 -48 -7 -70
-10 -22 -2 -53 -7 -70 -10 -84 -15 -103 -18 -135 -21 -19 -2 -55 -8 -80 -13
-25 -6 -58 -13 -75 -15 -16 -3 -41 -7 -55 -10 -14 -3 -41 -8 -60 -11 -63 -9
-335 -72 -430 -99 -30 -9 -66 -18 -80 -21 -99 -18 -657 -222 -644 -234 8 -9
6455 -7 6461 2 2 4 -1 7 -7 7 -6 0 -36 11 -66 25 -58 26 -182 75 -249 96 -22
7 -44 16 -50 20 -5 3 -32 12 -60 19 -27 7 -56 17 -62 23 -7 5 -20 7 -28 3 -8
-3 -15 -1 -15 4 0 6 -3 9 -7 8 -5 0 -15 1 -23 5 -15 5 -57 16 -95 24 -28 6
-38 9 -55 16 -14 6 -89 26 -120 32 -8 2 -35 8 -60 15 -25 6 -58 13 -74 16 -16
3 -59 12 -95 20 -36 8 -77 17 -91 20 -14 2 -45 9 -70 14 -46 10 -83 16 -155
26 -22 3 -47 7 -54 10 -8 3 -35 7 -60 10 -26 3 -57 7 -71 10 -14 3 -41 7 -60
9 -19 2 -53 7 -75 10 -130 19 -319 40 -455 51 -36 3 -83 7 -105 9 -22 3 -78 7
-125 10 -47 3 -114 7 -150 10 -136 10 -825 26 -833 19z"/>
<path d="M50 4097 c-59 -134 -53 -274 17 -397 29 -50 113 -152 157 -189 15
-14 34 -31 41 -38 8 -7 16 -13 19 -13 3 0 14 -8 24 -17 10 -10 27 -24 38 -30
10 -7 35 -23 54 -36 47 -31 134 -81 140 -82 3 0 26 -12 52 -28 26 -15 53 -27
61 -27 9 0 17 -3 19 -8 11 -26 506 -205 683 -247 11 -3 72 -18 135 -35 116
-30 313 -74 405 -90 283 -50 317 -56 385 -65 25 -3 72 -10 105 -15 33 -4 67
-9 75 -9 8 -1 51 -6 95 -11 44 -5 105 -12 135 -15 30 -3 73 -8 95 -10 40 -6
92 -10 240 -21 44 -3 103 -7 130 -9 75 -5 333 -16 477 -20 l127 -3 98 161 c54
89 103 169 108 179 6 10 48 79 95 155 47 75 87 142 89 148 2 5 16 28 31 50 40
59 146 236 209 350 89 159 99 186 106 262 5 59 -35 102 -111 118 -16 4 -40 9
-54 12 -14 3 -979 7 -2146 8 l-2120 2 -14 -30z"/>
<path d="M5867 4124 c-1 -1 -41 -4 -88 -8 -160 -12 -275 -61 -377 -162 -36
-35 -63 -64 -60 -64 3 0 -9 -16 -28 -37 -18 -20 -31 -40 -28 -45 3 -4 2 -8 -3
-8 -4 0 -19 -17 -33 -38 -14 -20 -28 -39 -31 -42 -3 -3 -12 -16 -19 -29 -7
-14 -17 -30 -21 -35 -20 -24 -80 -121 -82 -130 -1 -6 -10 -18 -19 -27 -10 -9
-18 -20 -18 -23 0 -4 -20 -39 -45 -77 -24 -38 -42 -69 -39 -69 2 0 0 -6 -6
-12 -14 -18 -42 -62 -128 -203 -40 -66 -77 -127 -83 -135 -14 -24 -154 -254
-163 -267 -7 -13 62 -12 224 2 30 2 89 7 130 10 41 3 93 7 115 10 22 3 60 7
85 10 43 4 111 11 175 20 17 2 53 7 80 10 80 10 165 22 215 31 14 2 45 7 70
10 25 3 53 7 62 10 22 7 52 12 98 18 19 2 46 7 60 10 14 3 36 8 50 10 14 3 50
10 80 16 30 6 66 13 80 16 14 2 32 7 40 10 8 3 29 8 45 10 17 3 55 12 85 21
30 8 69 17 85 20 17 3 38 9 48 14 9 5 17 8 17 6 0 -3 57 13 128 35 70 21 136
41 147 43 19 4 55 17 100 35 36 14 105 37 118 38 4 1 20 8 35 15 36 19 106 51
113 51 13 2 114 51 120 59 3 5 9 8 13 7 7 -1 79 31 86 39 3 4 25 17 50 30 101
55 250 167 318 241 68 74 133 189 148 265 14 66 2 170 -26 238 l-22 53 -950 0
c-522 0 -950 -1 -951 -2z"/>
</g>
</svg>
